<svg width="100%" viewBox="0 0 800 320" xmlns="http://www.w3.org/2000/svg" font-family="'Courier New', monospace">
  <defs>
    <style>
      .name { font-family: 'Courier New', monospace; font-size: 32px; font-weight: 900; fill: #ffffff; letter-spacing: 3px; }
      .label { font-family: 'Courier New', monospace; font-size: 10px; fill: #00ffcc; letter-spacing: 3px; }
      .stat-key { font-family: 'Courier New', monospace; font-size: 9px; fill: #00ffcc99; letter-spacing: 2px; }
      .stat-val { font-family: 'Courier New', monospace; font-size: 11px; fill: #e0ffe8; letter-spacing: 1px; }
      .badge-text { font-family: 'Courier New', monospace; font-size: 9px; letter-spacing: 2px; }
      .boot { font-family: 'Courier New', monospace; font-size: 9px; fill: #00ffcc55; letter-spacing: 2px; }
    </style>
    <linearGradient id="divGrad" x1="0%" y1="0%" x2="100%" y2="0%">
      <stop offset="0%" stop-color="#00ffcc"/>
      <stop offset="60%" stop-color="#7b2fff" stop-opacity="0.6"/>
      <stop offset="100%" stop-color="#050510" stop-opacity="0"/>
    </linearGradient>
    <linearGradient id="cardGlow" x1="0%" y1="0%" x2="0%" y2="100%">
      <stop offset="0%" stop-color="#00ffcc" stop-opacity="0.07"/>
      <stop offset="100%" stop-color="#050510" stop-opacity="0"/>
    </linearGradient>
  </defs>

  <!-- Background -->
  <rect width="800" height="320" fill="#050510"/>

  <!-- Grid lines horizontal -->
  <g opacity="0.18">
    <line x1="0" y1="40" x2="800" y2="40" stroke="#00ffcc" stroke-width="0.4"/>
    <line x1="0" y1="80" x2="800" y2="80" stroke="#00ffcc" stroke-width="0.4"/>
    <line x1="0" y1="120" x2="800" y2="120" stroke="#00ffcc" stroke-width="0.4"/>
    <line x1="0" y1="160" x2="800" y2="160" stroke="#00ffcc" stroke-width="0.4"/>
    <line x1="0" y1="200" x2="800" y2="200" stroke="#00ffcc" stroke-width="0.4"/>
    <line x1="0" y1="240" x2="800" y2="240" stroke="#00ffcc" stroke-width="0.4"/>
    <line x1="0" y1="280" x2="800" y2="280" stroke="#00ffcc" stroke-width="0.4"/>
    <!-- Grid lines vertical -->
    <line x1="40" y1="0" x2="40" y2="320" stroke="#00ffcc" stroke-width="0.4"/>
    <line x1="80" y1="0" x2="80" y2="320" stroke="#00ffcc" stroke-width="0.4"/>
    <line x1="120" y1="0" x2="120" y2="320" stroke="#00ffcc" stroke-width="0.4"/>
    <line x1="160" y1="0" x2="160" y2="320" stroke="#00ffcc" stroke-width="0.4"/>
    <line x1="200" y1="0" x2="200" y2="320" stroke="#00ffcc" stroke-width="0.4"/>
    <line x1="240" y1="0" x2="240" y2="320" stroke="#00ffcc" stroke-width="0.4"/>
    <line x1="280" y1="0" x2="280" y2="320" stroke="#00ffcc" stroke-width="0.4"/>
    <line x1="320" y1="0" x2="320" y2="320" stroke="#00ffcc" stroke-width="0.4"/>
    <line x1="360" y1="0" x2="360" y2="320" stroke="#00ffcc" stroke-width="0.4"/>
    <line x1="400" y1="0" x2="400" y2="320" stroke="#00ffcc" stroke-width="0.4"/>
    <line x1="440" y1="0" x2="440" y2="320" stroke="#00ffcc" stroke-width="0.4"/>
    <line x1="480" y1="0" x2="480" y2="320" stroke="#00ffcc" stroke-width="0.4"/>
    <line x1="520" y1="0" x2="520" y2="320" stroke="#00ffcc" stroke-width="0.4"/>
    <line x1="560" y1="0" x2="560" y2="320" stroke="#00ffcc" stroke-width="0.4"/>
    <line x1="600" y1="0" x2="600" y2="320" stroke="#00ffcc" stroke-width="0.4"/>
    <line x1="640" y1="0" x2="640" y2="320" stroke="#00ffcc" stroke-width="0.4"/>
    <line x1="680" y1="0" x2="680" y2="320" stroke="#00ffcc" stroke-width="0.4"/>
    <line x1="720" y1="0" x2="720" y2="320" stroke="#00ffcc" stroke-width="0.4"/>
    <line x1="760" y1="0" x2="760" y2="320" stroke="#00ffcc" stroke-width="0.4"/>
  </g>

  <!-- Floating particles -->
  <circle cx="120" cy="60" r="1.5" fill="#00ffcc">
    <animate attributeName="cy" values="60;-10;60" dur="9s" repeatCount="indefinite"/>
    <animate attributeName="opacity" values="0.8;0.2;0.8" dur="9s" repeatCount="indefinite"/>
  </circle>
  <circle cx="300" cy="200" r="1" fill="#7b2fff">
    <animate attributeName="cy" values="200;-10;200" dur="7s" repeatCount="indefinite"/>
    <animate attributeName="opacity" values="0.6;0.1;0.6" dur="7s" repeatCount="indefinite"/>
  </circle>
  <circle cx="500" cy="100" r="1.5" fill="#00ffcc">
    <animate attributeName="cy" values="100;-10;100" dur="11s" repeatCount="indefinite"/>
    <animate attributeName="opacity" values="0.7;0.2;0.7" dur="11s" repeatCount="indefinite"/>
  </circle>
  <circle cx="650" cy="250" r="1" fill="#ff00ff">
    <animate attributeName="cy" values="250;-10;250" dur="8s" repeatCount="indefinite"/>
    <animate attributeName="opacity" values="0.5;0.1;0.5" dur="8s" repeatCount="indefinite"/>
  </circle>
  <circle cx="750" cy="150" r="1.2" fill="#00ffcc">
    <animate attributeName="cy" values="150;-10;150" dur="13s" repeatCount="indefinite"/>
    <animate attributeName="opacity" values="0.6;0.2;0.6" dur="13s" repeatCount="indefinite"/>
  </circle>
  <circle cx="200" cy="300" r="1" fill="#7b2fff">
    <animate attributeName="cy" values="300;-10;300" dur="10s" repeatCount="indefinite"/>
    <animate attributeName="opacity" values="0.5;0.1;0.5" dur="10s" repeatCount="indefinite"/>
  </circle>

  <!-- Main card border with pulse -->
  <rect x="28" y="18" width="744" height="284" rx="4" fill="url(#cardGlow)" stroke="#00ffcc" stroke-width="0.8" stroke-opacity="0.35">
    <animate attributeName="stroke-opacity" values="0.35;0.7;0.35" dur="4s" repeatCount="indefinite"/>
  </rect>

  <!-- Corner brackets -->
  <rect x="28" y="18" width="12" height="2" fill="#00ffcc"/>
  <rect x="28" y="18" width="2" height="12" fill="#00ffcc"/>
  <rect x="760" y="18" width="12" height="2" fill="#00ffcc"/>
  <rect x="770" y="18" width="2" height="12" fill="#00ffcc"/>
  <rect x="28" y="288" width="12" height="2" fill="#00ffcc"/>
  <rect x="28" y="278" width="2" height="12" fill="#00ffcc"/>
  <rect x="760" y="288" width="12" height="2" fill="#00ffcc"/>
  <rect x="770" y="278" width="2" height="12" fill="#00ffcc"/>

  <!-- Boot line -->
  <text x="48" y="44" class="boot">// PROFILE_SYS v2.4.1 — INIT SEQUENCE COMPLETE</text>

  <!-- Identity label -->
  <text x="48" y="62" class="label">// IDENTITY</text>

  <!-- Name with flicker -->
  <text x="48" y="100" class="name">CHEOK ZHI HONG
    <animate attributeName="opacity" values="1;1;1;1;1;1;1;1;0.6;1;0.9;1" dur="8s" repeatCount="indefinite"/>
  </text>

  <!-- Divider -->
  <rect x="48" y="112" width="540" height="1.5" fill="url(#divGrad)">
    <animate attributeName="opacity" values="0.6;1;0.6" dur="3s" repeatCount="indefinite"/>
  </rect>

  <!-- Cycling role titles (SMIL opacity cycling) -->
  <text x="48" y="138" class="label" font-size="13" fill="#00ffcc" letter-spacing="3">SOFTWARE DEVELOPER
    <animate attributeName="opacity" values="1;1;1;1;0;0;0;0;0;0;0;0;0;0;0;0" dur="16s" repeatCount="indefinite"/>
  </text>
  <text x="48" y="138" class="label" font-size="13" fill="#00ffcc" letter-spacing="3">GAME SYSTEMS ENGINEER
    <animate attributeName="opacity" values="0;0;0;0;1;1;1;1;0;0;0;0;0;0;0;0" dur="16s" repeatCount="indefinite"/>
  </text>
  <text x="48" y="138" class="label" font-size="13" fill="#00ffcc" letter-spacing="3">FULL-STACK WEB BUILDER
    <animate attributeName="opacity" values="0;0;0;0;0;0;0;0;1;1;1;1;0;0;0;0" dur="16s" repeatCount="indefinite"/>
  </text>
  <text x="48" y="138" class="label" font-size="13" fill="#00ffcc" letter-spacing="3">DATABASE ARCHITECT
    <animate attributeName="opacity" values="0;0;0;0;0;0;0;0;0;0;0;0;1;1;1;1" dur="16s" repeatCount="indefinite"/>
  </text>

  <!-- Stat boxes -->
  <rect x="48" y="155" width="155" height="52" rx="3" fill="#00ffcc08" stroke="#00ffcc" stroke-width="0.6" stroke-opacity="0.3"/>
  <text x="57" y="172" class="stat-key">CLASS</text>
  <text x="57" y="188" class="stat-val">Software Developer</text>

  <rect x="215" y="155" width="140" height="52" rx="3" fill="#00ffcc08" stroke="#00ffcc" stroke-width="0.6" stroke-opacity="0.3"/>
  <text x="224" y="172" class="stat-key">GUILD</text>
  <text x="224" y="188" class="stat-val">Swinburne Sarawak</text>

  <rect x="367" y="155" width="130" height="52" rx="3" fill="#00ffcc08" stroke="#00ffcc" stroke-width="0.6" stroke-opacity="0.3"/>
  <text x="376" y="172" class="stat-key">LOCATION</text>
  <text x="376" y="188" class="stat-val">Johor Bahru, MY</text>

  <rect x="509" y="155" width="148" height="52" rx="3" fill="#00ffcc0a" stroke="#00ffcc" stroke-width="0.8" stroke-opacity="0.5">
    <animate attributeName="stroke-opacity" values="0.5;1;0.5" dur="2s" repeatCount="indefinite"/>
  </rect>
  <text x="518" y="172" class="stat-key">STATUS</text>
  <text x="518" y="188" class="stat-val" fill="#00ffcc">Open to Internship</text>

  <!-- Skill badges -->
  <rect x="48" y="224" width="72" height="20" rx="2" fill="#00ffcc0d" stroke="#00ffcc" stroke-width="0.6" stroke-opacity="0.5"/>
  <text x="84" y="237" class="badge-text" fill="#00ffcc" text-anchor="middle">GAME DEV</text>

  <rect x="130" y="224" width="96" height="20" rx="2" fill="#7b2fff10" stroke="#7b2fff" stroke-width="0.6" stroke-opacity="0.5"/>
  <text x="178" y="237" class="badge-text" fill="#bf7fff" text-anchor="middle">FULL-STACK WEB</text>

  <rect x="237" y="224" width="112" height="20" rx="2" fill="#ff00ff0a" stroke="#ff00ff" stroke-width="0.6" stroke-opacity="0.4"/>
  <text x="293" y="237" class="badge-text" fill="#ff6bcd" text-anchor="middle">DATABASE DESIGN</text>

  <rect x="360" y="224" width="126" height="20" rx="2" fill="#00ffcc0d" stroke="#00ffcc" stroke-width="0.6" stroke-opacity="0.5"/>
  <text x="423" y="237" class="badge-text" fill="#00ffcc" text-anchor="middle">C# · C++ · PYTHON</text>

  <rect x="498" y="224" width="114" height="20" rx="2" fill="#7b2fff10" stroke="#7b2fff" stroke-width="0.6" stroke-opacity="0.5"/>
  <text x="555" y="237" class="badge-text" fill="#bf7fff" text-anchor="middle">RAYLIB · .NET</text>

  <!-- Signal label -->
  <text x="48" y="272" class="stat-key">SIGNAL</text>

  <!-- Animated signal bars -->
  <rect x="100" y="262" width="4" height="6" rx="1" fill="#00ffcc">
    <animate attributeName="opacity" values="1;0.3;1" dur="1.8s" repeatCount="indefinite"/>
  </rect>
  <rect x="108" y="259" width="4" height="9" rx="1" fill="#00ffcc">
    <animate attributeName="opacity" values="1;0.3;1" dur="1.8s" begin="0.1s" repeatCount="indefinite"/>
  </rect>
  <rect x="116" y="256" width="4" height="12" rx="1" fill="#00ffcc">
    <animate attributeName="opacity" values="1;0.3;1" dur="1.8s" begin="0.2s" repeatCount="indefinite"/>
  </rect>
  <rect x="124" y="253" width="4" height="15" rx="1" fill="#00ffcc">
    <animate attributeName="opacity" values="1;0.3;1" dur="1.8s" begin="0.3s" repeatCount="indefinite"/>
  </rect>
  <rect x="132" y="250" width="4" height="18" rx="1" fill="#00ffcc">
    <animate attributeName="opacity" values="1;0.3;1" dur="1.8s" begin="0.4s" repeatCount="indefinite"/>
  </rect>

  <!-- Pulse dot -->
  <circle cx="150" cy="268" r="4" fill="#00ffcc">
    <animate attributeName="r" values="4;6;4" dur="1.5s" repeatCount="indefinite"/>
    <animate attributeName="opacity" values="1;0.4;1" dur="1.5s" repeatCount="indefinite"/>
  </circle>

  <!-- Status text -->
  <text x="162" y="272" class="stat-key" fill="#00ffcc">SEEKING INTERNSHIP — QUEST UNLOCKED</text>
</svg>
